<?xml version="1.0" encoding="UTF-8"?>
<svg width="202px" height="201px" viewBox="0 0 202 201" version="1.1" xmlns="http://www.w3.org/2000/svg" xmlns:xlink="http://www.w3.org/1999/xlink">
    <!-- Generator: Sketch 49.1 (51147) - http://www.bohemiancoding.com/sketch -->
    <title>logo</title>
    <desc>Created with Sketch.</desc>
    <defs></defs>
    <g id="Page-1" stroke="none" stroke-width="1" fill="none" fill-rule="evenodd">
        <path d="M100.931828,200.418 C100.931828,200.418 262.452828,152.013 176.336828,3.986 C176.336828,3.986 141.898828,23.997 100.931828,3.052 L100.684828,3 C59.7228283,23.947 25.2778283,3.936 25.2778283,3.936 C-60.8331717,151.964 100.684828,200.368 100.684828,200.368 L100.931828,200.418 Z" id="Shape" fill="#4A90E2" fill-rule="nonzero"></path>
        <path d="M126.65,119.725 C127.250003,119.725 127.849997,119.837499 128.45,120.0625 C129.050003,120.287501 129.624997,120.674997 130.175,121.225 L140.225,131.8 C135.824978,137.550029 130.312533,141.887485 123.6875,144.8125 C117.062467,147.737515 109.225045,149.2 100.175,149.2 C91.8749585,149.2 84.4375329,147.787514 77.8625,144.9625 C71.2874671,142.137486 65.7125229,138.237525 61.1375,133.2625 C56.5624771,128.287475 53.0500123,122.387534 50.6,115.5625 C48.1499878,108.737466 46.925,101.32504 46.925,93.325 C46.925,85.1749593 48.324986,77.6875341 51.125,70.8625 C53.925014,64.0374659 57.8374749,58.1500248 62.8625,53.2 C67.8875251,48.2499753 73.899965,44.4000137 80.9,41.65 C87.900035,38.8999863 95.6249577,37.525 104.075,37.525 C108.17502,37.525 112.037482,37.8874964 115.6625,38.6125 C119.287518,39.3375036 122.674984,40.3374936 125.825,41.6125 C128.975016,42.8875064 131.874987,44.4124911 134.525,46.1875 C137.175013,47.9625089 139.52499,49.9249893 141.575,52.075 L133.025,63.55 C132.474997,64.2500035 131.825004,64.8874971 131.075,65.4625 C130.324996,66.0375029 129.275007,66.325 127.925,66.325 C127.024995,66.325 126.175004,66.125002 125.375,65.725 C124.574996,65.324998 123.725005,64.8375029 122.825,64.2625 C121.924995,63.6874971 120.937505,63.0625034 119.8625,62.3875 C118.787495,61.7124966 117.512507,61.0875029 116.0375,60.5125 C114.562493,59.9374971 112.83751,59.450002 110.8625,59.05 C108.88749,58.649998 106.575013,58.45 103.925,58.45 C99.324977,58.45 95.125019,59.2624919 91.325,60.8875 C87.524981,62.5125081 84.2625136,64.8374849 81.5375,67.8625 C78.8124864,70.8875151 76.6875076,74.5499785 75.1625,78.85 C73.6374924,83.1500215 72.875,87.9749733 72.875,93.325 C72.875,98.925028 73.6374924,103.899978 75.1625,108.25 C76.6875076,112.600022 78.7624869,116.262485 81.3875,119.2375 C84.0125131,122.212515 87.0749825,124.474992 90.575,126.025 C94.0750175,127.575008 97.82498,128.35 101.825,128.35 C104.125011,128.35 106.22499,128.237501 108.125,128.0125 C110.02501,127.787499 111.787492,127.400003 113.4125,126.85 C115.037508,126.299997 116.587493,125.587504 118.0625,124.7125 C119.537507,123.837496 121.024992,122.750007 122.525,121.45 C123.125003,120.949997 123.774997,120.537502 124.475,120.2125 C125.175004,119.887498 125.899996,119.725 126.65,119.725 Z" id="C" fill="#FFFFFF"></path>
    </g>
</svg>